{"title":"Great Grand Masti (2016) 720p x264 DVDRip AC3 5.1 ESub -DDR","uid":15771075,"size":2650148649,"categoryP":"video","categoryS":"hd___movies","magnet":"?xt=urn:btih:75bb9a01b1f97cd0b08397662c43e8ef62c05fa1&amp;dn=Great+Grand+Masti+%282016%29+720p+x264+DVDRip+AC3+5.1+ESub+-DDR&amp;tr=udp%3A%2F%2Ftracker.leechers-paradise.org%3A6969&amp;tr=udp%3A%2F%2Fzer0day.ch%3A1337&amp;tr=udp%3A%2F%2Fopen.demonii.com%3A1337&amp;tr=udp%3A%2F%2Ftracker.coppersurfer.tk%3A6969&amp;tr=udp%3A%2F%2Fexodus.desync.com%3A6969","seeders":19,"leechers":20,"uploader":"SaM","files":3,"time":1473203366,"description":"\n** Great Grand Masti **\r\n\r\n** 2016**\r\n\r\n** 720p / DVDrip / x264\r\n\r\nHindi Untouched AC3 5.1 **\r\n\r\n** English Subtitle(s) **\r\n\r\n\r\n\r\n[ SCREENS ]\r\n \nhttp://extraimago.com/image/wRr9 \nhttp://extraimago.com/image/wRr3 \nhttp://extraimago.com/image/wRrb \nhttp://extraimago.com/image/wRrh \nhttp://extraimago.com/image/wRrd \nhttp://extraimago.com/image/wRrI \nhttp://extraimago.com/image/wRrl \nhttp://extraimago.com/image/wRri \nhttp://extraimago.com/image/wRrm \nhttp://extraimago.com/image/wRrR \nhttp://extraimago.com/image/wRrQ \nhttp://extraimago.com/image/wRrL\r\n\r\n[ Info ]\r\n\r\nSource : DVD9 @ DDR\r\nGeneral\r\nFormat : Matroska\r\nFile size : 2.45 GiB\r\nDuration : 2 h 2 min\r\nOverall bit rate : 2 868 kb/s\r\n\r\n\r\nVideo\r\nFormat : AVC\r\nFormat/Info : Advanced Video Codec\r\nFormat profile :   \r\nFormat settings, CABAC : Yes\r\nFormat settings, ReFrames : 12 frames\r\nCodec ID : V_MPEG4/ISO/AVC\r\nDuration : 2 h 2 min\r\nBit rate : 2 500 kb/s\r\nWidth : 1 280 pixels\r\nHeight : 544 pixels\r\nDisplay aspect ratio : 2.35:1\r\nFrame rate mode : Constant\r\nFrame rate : 23.976 (24000/1001) FPS\r\ncolor space : YUV\r\nChroma subsampling : 4:2:0\r\nBit depth : 8 bits\r\nScan type : Progressive\r\nBits/(Pixel*Frame) : 0.150\r\nStream size : 2.12 GiB (87%)\r\ncolor range : Limited\r\ncolor primaries : BT.709\r\n\r\n\r\nAudio\r\nFormat : AC-3\r\nFormat/Info : Audio Coding 3\r\nMode extension : CM (complete main)\r\nFormat settings, Endianness : Big\r\nCodec ID : A_AC3\r\nDuration : 2 h 2 min\r\nBit rate mode : Constant\r\nBit rate : 384 kb/s\r\nChannel(s) : 6 channels\r\nChannel positions : Front: L C R, Side: L R, LFE\r\nSampling rate : 48.0 kHz\r\nFrame rate : 31.250 FPS (1536 spf)\r\nCompression mode : Lossy\r\nDelay relative to video : 15 ms\r\nStream size : 336 MiB (13%)\r\nLanguage : Hindi\r\nDefault : Yes\r\nForced : No\r\n\r\n\r\nChapters : YES","torrent":{"xt":"urn:btih:75bb9a01b1f97cd0b08397662c43e8ef62c05fa1","amp;dn":"Great+Grand+Masti+%282016%29+720p+x264+DVDRip+AC3+5.1+ESub+-DDR","amp;tr":["udp%3A%2F%2Ftracker.leechers-paradise.org%3A6969","udp%3A%2F%2Fzer0day.ch%3A1337","udp%3A%2F%2Fopen.demonii.com%3A1337","udp%3A%2F%2Ftracker.coppersurfer.tk%3A6969","udp%3A%2F%2Fexodus.desync.com%3A6969"],"infoHash":"75bb9a01b1f97cd0b08397662c43e8ef62c05fa1","infoHashBuffer":{"type":"Buffer","data":[117,187,154,1,177,249,124,208,176,131,151,102,44,67,232,239,98,192,95,161]},"announce":[],"urlList":[]}}